<svg width="195" height="34" viewBox="0 0 195 34" fill="none" xmlns="http://www.w3.org/2000/svg">
<path d="M61.8481 28.4997C61.0659 28.4997 60.2528 28.4482 59.4089 28.3452C58.5855 28.2422 57.7724 28.0671 56.9697 27.8199C56.1669 27.5727 55.4155 27.2843 54.7157 26.9547C54.1599 26.6663 53.7688 26.2955 53.5424 25.8423C53.3365 25.3684 53.2645 24.8843 53.3262 24.3899C53.4086 23.8955 53.5938 23.4629 53.882 23.0921C54.1908 22.7213 54.5819 22.4741 55.0553 22.3505C55.5493 22.2269 56.1051 22.3093 56.7226 22.5977C57.6489 23.0509 58.6164 23.3702 59.625 23.5556C60.6542 23.741 61.5805 23.8337 62.4039 23.8337C63.5772 23.8337 64.4726 23.6483 65.0901 23.2775C65.7283 22.8861 66.0473 22.402 66.0473 21.8252C66.0473 21.3514 65.8518 20.96 65.4607 20.651C65.0901 20.3214 64.4932 20.0639 63.6698 19.8785L60.119 19.0132C58.5546 18.663 57.3093 17.9935 56.383 17.0047C55.4773 16.0159 55.0244 14.7902 55.0244 13.3276C55.0244 12.1533 55.2715 11.1233 55.7655 10.2375C56.2595 9.33109 56.9388 8.56888 57.8033 7.95086C58.6679 7.31225 59.6559 6.83845 60.7674 6.52944C61.879 6.19984 63.042 6.03503 64.2565 6.03503C65.2445 6.03503 66.3149 6.14834 67.4676 6.37494C68.6203 6.60154 69.7216 7.00325 70.7714 7.58006C71.2654 7.82726 71.6153 8.16717 71.8212 8.59978C72.0476 9.03238 72.1402 9.48559 72.0991 9.9594C72.0579 10.4126 71.8829 10.8143 71.5742 11.1645C71.286 11.5147 70.8743 11.7516 70.3391 11.8752C69.8245 11.9782 69.207 11.8855 68.4865 11.5971C67.8484 11.3087 67.1486 11.0924 66.3869 10.9482C65.6253 10.7834 64.9049 10.701 64.2256 10.701C63.464 10.701 62.8053 10.7937 62.2495 10.9791C61.7143 11.1439 61.3026 11.3808 61.0145 11.6898C60.7263 11.9988 60.5822 12.349 60.5822 12.7404C60.5822 13.2143 60.7572 13.6057 61.1071 13.9147C61.457 14.2237 62.0025 14.4709 62.7435 14.6563L66.2943 15.4906C67.9822 15.882 69.2893 16.5824 70.2156 17.5918C71.1419 18.5806 71.605 19.7755 71.605 21.1763C71.605 22.4123 71.3375 23.4938 70.8023 24.4208C70.2877 25.3272 69.5672 26.0895 68.6409 26.7075C67.7352 27.3049 66.6957 27.7581 65.5224 28.0671C64.3491 28.3555 63.1243 28.4997 61.8481 28.4997Z" fill="white"/>
<path d="M77.5138 28.4997C76.4434 28.4997 75.5171 28.2731 74.7349 27.8199C73.9733 27.3667 73.4278 26.656 73.0985 25.6878C72.7897 24.7195 72.7485 23.4732 72.9749 21.9488L74.0556 15.2125C74.1997 14.3473 74.5188 13.7087 75.0128 13.2967C75.5068 12.8846 76.1758 12.6786 77.0198 12.6786C77.9666 12.6786 78.6459 12.9361 79.0576 13.4512C79.4899 13.9662 79.6339 14.7078 79.4899 15.676L78.5018 21.8561C78.3989 22.6595 78.4606 23.2672 78.6871 23.6792C78.9135 24.0912 79.3561 24.2972 80.0148 24.2972C80.8175 24.2972 81.4865 24.0088 82.0217 23.432C82.5569 22.8552 82.9068 22.0518 83.0715 21.0218L83.9978 15.2125C84.1419 14.3473 84.461 13.7087 84.955 13.2967C85.449 12.8846 86.118 12.6786 86.9619 12.6786C87.8882 12.6786 88.5572 12.9361 88.9689 13.4512C89.4012 13.9662 89.5453 14.7078 89.4012 15.676L87.7956 25.9041C87.528 27.5933 86.54 28.4379 84.8315 28.4379C83.9669 28.4379 83.3391 28.2216 82.948 27.789C82.5569 27.3358 82.4334 26.6251 82.5775 25.6569L82.8245 23.9882L82.7936 25.3478C82.2379 26.4191 81.4968 27.2122 80.5705 27.7272C79.6648 28.2422 78.6459 28.4997 77.5138 28.4997Z" fill="white"/>
<path d="M91.5189 34C90.6543 34 90.0265 33.7219 89.6354 33.1657C89.2443 32.6095 89.1208 31.8267 89.2649 30.8172L91.7041 15.3979C91.8482 14.4915 92.1776 13.8117 92.6922 13.3585C93.2068 12.9052 93.9169 12.6786 94.8226 12.6786C95.6872 12.6786 96.3047 12.967 96.6752 13.5439C97.0663 14.1001 97.1795 14.8829 97.0148 15.8923L96.8605 16.8811L96.8913 15.3361C97.4677 14.4709 98.1984 13.8014 99.0836 13.3276C99.9687 12.8537 100.936 12.6168 101.986 12.6168C103.118 12.6168 104.106 12.8846 104.95 13.4203C105.794 13.9559 106.442 14.7181 106.895 15.7069C107.369 16.6957 107.605 17.8699 107.605 19.2295C107.605 21.0012 107.286 22.5874 106.648 23.9882C106.01 25.389 105.115 26.4912 103.962 27.2946C102.809 28.098 101.461 28.4997 99.9172 28.4997C98.8263 28.4997 97.8691 28.2628 97.0457 27.789C96.2224 27.2946 95.6357 26.5839 95.2858 25.6569L95.5637 25.6878L94.6682 31.3116C94.5447 32.2181 94.2154 32.8876 93.6802 33.3202C93.1656 33.7734 92.4451 34 91.5189 34ZM98.7439 24.4517C99.4438 24.4517 100.041 24.2457 100.535 23.8337C101.029 23.4011 101.41 22.814 101.677 22.0724C101.945 21.3308 102.079 20.4862 102.079 19.5386C102.079 18.6115 101.862 17.9008 101.43 17.4064C101.018 16.912 100.442 16.6648 99.7011 16.6648C99.0012 16.6648 98.4043 16.8811 97.9103 17.3137C97.4162 17.7257 97.0251 18.3025 96.737 19.0441C96.4694 19.7858 96.3356 20.6304 96.3356 21.578C96.3356 22.505 96.5517 23.2157 96.984 23.7101C97.4162 24.2045 98.0029 24.4517 98.7439 24.4517Z" fill="white"/>
<path d="M116.501 28.4997C114.875 28.4997 113.455 28.2113 112.241 27.6345C111.026 27.0371 110.079 26.2028 109.4 25.1315C108.721 24.0603 108.381 22.814 108.381 21.3926C108.381 19.6416 108.762 18.1068 109.523 16.7884C110.306 15.47 111.355 14.4503 112.673 13.7293C114.011 12.9876 115.493 12.6168 117.119 12.6168C118.436 12.6168 119.548 12.8331 120.454 13.2658C121.38 13.6984 122.111 14.2855 122.646 15.0271C123.202 15.7687 123.572 16.6133 123.757 17.5609C123.943 18.4879 123.974 19.4459 123.85 20.4347C123.788 20.9497 123.644 21.2896 123.418 21.4544C123.191 21.5986 122.893 21.6707 122.522 21.6707H112.858L113.229 19.075H120.083L119.589 19.4768C119.692 18.8381 119.661 18.2716 119.496 17.7772C119.352 17.2828 119.074 16.9017 118.663 16.6339C118.272 16.3455 117.736 16.2013 117.057 16.2013C116.399 16.2013 115.843 16.3455 115.39 16.6339C114.937 16.9223 114.567 17.3137 114.278 17.8081C114.011 18.3025 113.836 18.8587 113.753 19.4768L113.537 20.6819C113.352 21.8973 113.578 22.8346 114.217 23.4938C114.855 24.1324 115.822 24.4517 117.119 24.4517C117.592 24.4517 118.117 24.4002 118.694 24.2972C119.291 24.1942 119.805 24.0397 120.237 23.8337C120.793 23.6071 121.256 23.5556 121.627 23.6792C122.018 23.8028 122.306 24.0397 122.491 24.3899C122.677 24.7195 122.749 25.0903 122.708 25.5023C122.687 25.9144 122.553 26.3161 122.306 26.7075C122.059 27.0783 121.689 27.3667 121.195 27.5727C120.474 27.9023 119.702 28.1392 118.879 28.2834C118.076 28.4276 117.284 28.4997 116.501 28.4997Z" fill="white"/>
<path d="M126.835 28.4379C125.971 28.4379 125.333 28.1701 124.921 27.6345C124.53 27.0989 124.406 26.347 124.551 25.3787L126.125 15.2743C126.269 14.4091 126.599 13.7602 127.113 13.3276C127.648 12.8949 128.348 12.6786 129.213 12.6786C130.077 12.6786 130.705 12.9464 131.096 13.4821C131.487 13.9971 131.601 14.749 131.436 15.7378L131.282 16.6957H131.004C131.374 15.4803 132.012 14.5121 132.918 13.7911C133.844 13.0494 134.904 12.658 136.098 12.6168C136.757 12.5962 137.23 12.7301 137.519 13.0185C137.807 13.2864 137.951 13.7499 137.951 14.4091C137.951 15.3773 137.724 16.0983 137.272 16.5721C136.839 17.0253 136.17 17.2931 135.265 17.3755L134.122 17.4991C133.052 17.6021 132.28 17.9111 131.806 18.4261C131.354 18.9411 131.035 19.7446 130.849 20.8364L130.077 25.8114C129.933 26.6972 129.594 27.3564 129.058 27.789C128.523 28.2216 127.782 28.4379 126.835 28.4379Z" fill="white"/>
<path d="M141.798 28.407C140.419 28.407 139.41 27.995 138.772 27.171C138.134 26.347 137.949 25.1212 138.216 23.4938L140.81 7.11655C140.872 6.78695 140.985 6.55004 141.149 6.40584C141.335 6.26164 141.582 6.18954 141.89 6.18954C142.179 6.18954 142.395 6.28224 142.539 6.46764C142.683 6.65304 142.724 6.93115 142.662 7.30195L140.1 23.4938C139.894 24.668 139.966 25.5126 140.316 26.0277C140.686 26.5221 141.324 26.7693 142.23 26.7693C142.539 26.7693 142.776 26.7487 142.94 26.7075C143.105 26.6663 143.239 26.6457 143.342 26.6457C143.465 26.6457 143.558 26.6869 143.62 26.7693C143.702 26.8517 143.743 27.0165 143.743 27.2637C143.743 27.5521 143.661 27.789 143.496 27.9744C143.352 28.1392 143.146 28.2525 142.879 28.3143C142.734 28.3349 142.549 28.3555 142.323 28.3761C142.117 28.3967 141.942 28.407 141.798 28.407Z" fill="white"/>
<path d="M146.28 28.3452C145.971 28.3452 145.745 28.2525 145.6 28.0671C145.477 27.8817 145.446 27.6036 145.508 27.2328L147.607 13.9147C147.669 13.5851 147.782 13.3482 147.947 13.2039C148.132 13.0391 148.379 12.9567 148.688 12.9567C148.976 12.9567 149.192 13.0597 149.337 13.2658C149.481 13.4512 149.522 13.719 149.46 14.0692L147.36 27.4182C147.319 27.7272 147.206 27.9641 147.021 28.1289C146.836 28.2731 146.589 28.3452 146.28 28.3452Z" fill="white"/>
<path d="M157.509 33.9691C156.336 33.9691 155.245 33.794 154.236 33.4438C153.227 33.1142 152.311 32.661 151.488 32.0842C151.303 31.9812 151.19 31.8473 151.148 31.6824C151.107 31.5176 151.107 31.3528 151.148 31.188C151.21 31.0232 151.303 30.879 151.426 30.7554C151.55 30.6524 151.694 30.5906 151.858 30.57C152.044 30.5494 152.229 30.6009 152.414 30.7245C153.176 31.2601 153.938 31.6721 154.699 31.9606C155.481 32.249 156.366 32.3932 157.354 32.3932C158.713 32.3932 159.814 32.0327 160.658 31.3116C161.523 30.6112 162.079 29.5194 162.326 28.0362L162.943 24.1736L163.19 24.2045C162.675 25.3169 161.914 26.2028 160.905 26.862C159.897 27.5006 158.723 27.8199 157.385 27.8199C156.191 27.8199 155.152 27.5727 154.267 27.0783C153.382 26.5633 152.692 25.8526 152.198 24.9461C151.704 24.0191 151.457 22.9376 151.457 21.7016C151.457 20.548 151.622 19.4459 151.951 18.3952C152.28 17.3446 152.764 16.4073 153.402 15.5833C154.04 14.7593 154.823 14.1104 155.749 13.6366C156.696 13.1421 157.776 12.8949 158.991 12.8949C160.247 12.8949 161.358 13.2143 162.326 13.8529C163.293 14.4709 163.952 15.4391 164.302 16.7575L164.024 16.9738L164.518 13.8838C164.58 13.5748 164.693 13.3482 164.857 13.2039C165.043 13.0391 165.29 12.9567 165.598 12.9567C165.887 12.9567 166.092 13.0597 166.216 13.2658C166.36 13.4512 166.401 13.719 166.34 14.0692L164.147 27.9435C163.818 29.9623 163.108 31.4661 162.017 32.455C160.926 33.4644 159.423 33.9691 157.509 33.9691ZM157.787 26.2131C159.042 26.2131 160.092 25.8835 160.936 25.2242C161.801 24.5444 162.449 23.6586 162.881 22.5668C163.334 21.475 163.561 20.3008 163.561 19.0441C163.561 17.6021 163.17 16.4897 162.387 15.7069C161.605 14.9035 160.514 14.5018 159.114 14.5018C157.879 14.5018 156.83 14.8417 155.965 15.5215C155.101 16.1807 154.452 17.0562 154.02 18.148C153.588 19.2192 153.371 20.3832 153.371 21.6398C153.371 23.1024 153.752 24.2354 154.514 25.0388C155.296 25.8217 156.387 26.2131 157.787 26.2131Z" fill="white"/>
<path d="M169.122 28.3452C168.813 28.3452 168.587 28.2525 168.443 28.0671C168.319 27.8611 168.289 27.583 168.35 27.2328L171.531 7.11655C171.592 6.80755 171.706 6.58094 171.87 6.43674C172.055 6.27194 172.302 6.18954 172.611 6.18954C172.899 6.18954 173.116 6.28224 173.26 6.46764C173.404 6.65304 173.445 6.92085 173.383 7.27105L171.87 16.7266H171.531C172.045 15.5318 172.807 14.5945 173.815 13.9147C174.845 13.2349 176.069 12.8949 177.49 12.8949C178.601 12.8949 179.528 13.1215 180.269 13.5748C181.03 14.028 181.565 14.7078 181.874 15.6142C182.204 16.5206 182.255 17.6639 182.029 19.0441L180.732 27.4182C180.691 27.7272 180.567 27.9641 180.361 28.1289C180.176 28.2731 179.929 28.3452 179.62 28.3452C179.311 28.3452 179.085 28.2525 178.941 28.0671C178.817 27.8817 178.787 27.6036 178.848 27.2328L180.145 19.0441C180.392 17.5197 180.258 16.3867 179.744 15.6451C179.229 14.9035 178.354 14.5327 177.119 14.5327C175.472 14.5327 174.165 15.0271 173.198 16.0159C172.251 17.0047 171.644 18.3334 171.376 20.0021L170.234 27.4182C170.131 28.0362 169.76 28.3452 169.122 28.3452Z" fill="white"/>
<path d="M190.321 28.407C189.23 28.407 188.324 28.201 187.604 27.789C186.904 27.3564 186.41 26.759 186.122 25.9968C185.854 25.2139 185.803 24.2869 185.967 23.2157L187.326 14.6872H185.165C184.897 14.6872 184.681 14.6357 184.516 14.5327C184.352 14.4091 184.269 14.2443 184.269 14.0383C184.269 13.7499 184.362 13.5336 184.547 13.3894C184.753 13.2452 185 13.173 185.288 13.173H187.542L188.191 9.24869C188.232 8.93968 188.345 8.71308 188.53 8.56888C188.715 8.42467 188.952 8.35257 189.24 8.35257C189.549 8.35257 189.765 8.44527 189.889 8.63068C190.033 8.81608 190.084 9.08388 190.043 9.43409L189.426 13.173H193.47C193.759 13.173 193.975 13.2246 194.119 13.3276C194.283 13.4306 194.366 13.5851 194.366 13.7911C194.366 14.0795 194.273 14.3061 194.088 14.4709C193.923 14.6151 193.687 14.6872 193.378 14.6872H189.179L187.882 22.9685C187.676 24.3075 187.81 25.2757 188.283 25.8732C188.757 26.4706 189.518 26.7693 190.568 26.7693C191.021 26.7693 191.371 26.7281 191.618 26.6457C191.885 26.5427 192.102 26.4912 192.266 26.4912C192.431 26.4912 192.554 26.5427 192.637 26.6457C192.719 26.7281 192.76 26.8826 192.76 27.1092C192.76 27.4182 192.709 27.6448 192.606 27.789C192.524 27.9332 192.379 28.0465 192.174 28.1289C191.947 28.2113 191.649 28.2731 191.278 28.3143C190.928 28.3761 190.609 28.407 190.321 28.407Z" fill="white"/>
<path d="M8.97774 15.4371C8.5549 13.6702 8.63224 11.8186 9.20118 10.0878C9.77012 8.35706 10.8084 6.81482 12.2008 5.6323C13.5931 4.44978 15.2851 3.67324 17.0889 3.38889C18.8926 3.10455 20.7376 3.32351 22.419 4.02147C24.1005 4.71944 25.5525 5.86911 26.614 7.34286C27.6756 8.8166 27.4335 9.05419 27.4335 9.05419" stroke="white" stroke-width="3.02288" stroke-linecap="round"/>
<path d="M25.4946 9.70134C27.8655 8.62278 30.9591 8.73529 32.7136 9.24209C34.4681 9.74888 36.0504 10.73 37.2849 12.0766C38.5193 13.4233 39.3575 15.0826 39.7065 16.8706C40.0555 18.6585 39.9017 20.5051 39.262 22.2053" stroke="white" stroke-width="3.02288" stroke-linecap="round"/>
<g filter="url(#filter0_d_1_80)">
<path d="M4.62378 17.5739C5.71219 16.5872 7.05069 15.9238 8.49072 15.6571C9.93075 15.3905 11.416 15.531 12.7815 16.0632" stroke="white" stroke-width="3.02288" stroke-linecap="round"/>
</g>
<path d="M12.6071 31.0161C11.2296 31.516 9.74149 31.6214 8.30806 31.3209C6.87463 31.0203 5.55192 30.3254 4.48675 29.3134C3.42159 28.3013 2.65565 27.0117 2.27395 25.5877C1.89225 24.1636 1.90973 22.6609 2.32444 21.2463C2.73916 19.8317 3.53488 18.5605 4.62329 17.5739C5.7117 16.5872 7.0502 15.9238 8.49023 15.6571C9.93026 15.3905 11.4155 15.531 12.781 16.0632C14.1465 16.5954 15.339 17.4984 16.2259 18.672" stroke="white" stroke-width="3.02288" stroke-linecap="round"/>
<path d="M19.1157 30.9845C19.4636 30.3967 20.5351 29.2212 22.0379 29.2212C23.9166 29.2212 23.0816 30.1028 25.3777 29.662C27.6738 29.2212 27.2563 27.8987 29.5524 27.017C31.8485 26.1353 31.0135 27.8987 32.8921 27.4578C34.395 27.1052 35.7449 26.1353 36.2319 25.6945" stroke="white" stroke-width="3.02288" stroke-linecap="round" stroke-linejoin="round"/>
<defs>
<filter id="filter0_d_1_80" x="0.593242" y="10.4875" width="16.2192" height="10.1093" filterUnits="userSpaceOnUse" color-interpolation-filters="sRGB">
<feFlood flood-opacity="0" result="BackgroundImageFix"/>
<feColorMatrix in="SourceAlpha" type="matrix" values="0 0 0 0 0 0 0 0 0 0 0 0 0 0 0 0 0 0 127 0" result="hardAlpha"/>
<feOffset dy="-1.00762"/>
<feGaussianBlur stdDeviation="1.25953"/>
<feComposite in2="hardAlpha" operator="out"/>
<feColorMatrix type="matrix" values="0 0 0 0 0 0 0 0 0 0 0 0 0 0 0 0 0 0 0.15 0"/>
<feBlend mode="normal" in2="BackgroundImageFix" result="effect1_dropShadow_1_80"/>
<feBlend mode="normal" in="SourceGraphic" in2="effect1_dropShadow_1_80" result="shape"/>
</filter>
</defs>
</svg>
